#Comment line ignore any data following # character 
#Hierarchical Translation and Rotation (.htr) file 
[Header]	
#Header keywords are followed by a single value 
FileType HTR		#Single word string
DataType HTRS		#Translation followed by rotation and scale data
FileVersion 1		#integer
NumSegments 23		#integer
NumFrames 6		#integer
DataFrameRate 30		#integer, data frame rate in this file
EulerRotationOrder ZYX
CalibrationUnits mm
RotationUnits Degrees
GlobalAxisofGravity Y
BoneLengthAxis Y
ScaleFactor 1.00
[SegmentNames&Hierarchy]
#CHILD	PARENT
MASTER GLOBAL
weapon MASTER
arm_lock_bottom_part1 weapon
arm_lock_bottom_part2 weapon
arm_lock_bottom_part3 weapon
arm_lock_bottom_part4 weapon
arm_lock_top_part1 weapon
arm_lock_top_part2 weapon
arm_lock_top_part3 weapon
front_lower_left_part1 weapon
front_lower_right_part1 weapon
front_top_left_part weapon
front_top_right_part1 weapon
scope_part1 weapon
scope_part2 weapon
front_lower_left_part2 front_lower_left_part1
front_lower_left_part3 front_lower_left_part2
front_lower_right_part2 front_lower_right_part1
front_lower_right_part3 front_lower_right_part2
front_top_left_part2 front_top_left_part
front_top_left_part3 front_top_left_part2
front_top_right_part2 front_top_right_part1
front_top_right_part3 front_top_right_part2
[BasePosition]
#SegmentName Tx, Ty, Tz, Rx, Ry, Rz, BoneLength
MASTER 0.000000 0.000000 0.000000 -90.000000 0.000000 0.000000 10.000000 
weapon 0.000000 0.000000 0.000000 0.000000 0.000000 0.000000 10.000000 
arm_lock_bottom_part1 0.000000 0.000000 0.000000 0.000000 0.000000 0.000000 10.000000 
arm_lock_bottom_part2 0.000000 0.000000 0.000000 0.000000 0.000000 0.000000 10.000000 
arm_lock_bottom_part3 0.000000 0.000000 0.000000 0.000000 0.000000 0.000000 10.000000 
arm_lock_bottom_part4 0.000000 0.000000 0.000000 0.000000 0.000000 0.000000 10.000000 
arm_lock_top_part1 0.000000 0.000000 0.000000 0.000000 0.000000 0.000000 10.000000 
arm_lock_top_part2 0.000000 0.000000 0.000000 0.000000 0.000000 0.000000 10.000000 
arm_lock_top_part3 0.000000 0.000000 0.000000 0.000000 0.000000 0.000000 10.000000 
front_lower_left_part1 0.000000 0.000000 0.000000 0.000000 0.000000 0.000000 10.000000 
front_lower_right_part1 0.000000 0.000000 0.000000 0.000000 0.000000 0.000000 10.000000 
front_top_left_part 0.000000 0.000000 0.000000 0.000000 0.000000 0.000000 10.000000 
front_top_right_part1 0.000000 0.000000 0.000000 0.000000 0.000000 0.000000 10.000000 
scope_part1 0.000000 0.000000 0.000000 0.000000 0.000000 0.000000 10.000000 
scope_part2 0.000000 0.000000 0.000000 0.000000 0.000000 0.000000 10.000000 
front_lower_left_part2 0.000000 0.000000 0.000000 0.000000 0.000000 0.000000 10.000000 
front_lower_left_part3 0.000000 0.000000 0.000000 0.000000 0.000000 0.000000 10.000000 
front_lower_right_part2 0.000000 0.000000 0.000000 0.000000 0.000000 0.000000 10.000000 
front_lower_right_part3 0.000000 0.000000 0.000000 0.000000 0.000000 0.000000 10.000000 
front_top_left_part2 0.000000 0.000000 0.000000 0.000000 0.000000 0.000000 10.000000 
front_top_left_part3 0.000000 0.000000 0.000000 0.000000 0.000000 0.000000 10.000000 
front_top_right_part2 0.000000 0.000000 0.000000 0.000000 0.000000 0.000000 10.000000 
front_top_right_part3 0.000000 0.000000 0.000000 0.000000 0.000000 0.000000 10.000000 
#Beginning of Data. Separated by tabs
#Fr	Tx	Ty	Tz	Rx	Ry	Rz	SF
[MASTER]
78 0.000000 -0.000019 0.000002 0.002458 -0.000000 0.000000 0.000019
79 0.000000 -0.000019 0.000002 0.002458 -0.000000 0.000000 0.000019
80 0.000000 -0.000019 0.000002 0.002458 -0.000000 0.000000 0.000019
81 0.000000 -0.000019 0.000002 0.002458 -0.000000 0.000000 0.000019
82 0.000000 -0.000019 0.000002 0.002458 -0.000000 0.000000 0.000019
83 0.000000 -0.000019 0.000002 0.002458 -0.000000 0.000000 0.000019
[weapon]
78 10.182457 -168.977844 -13.084106 -0.002473 -0.000000 -0.000020 169.789246
79 10.182457 -168.977844 -13.084106 -0.002473 -0.000000 -0.000020 169.789246
80 10.182457 -168.977844 -13.084106 -0.002473 -0.000000 -0.000020 169.789246
81 10.182457 -168.977844 -13.084106 -0.002473 -0.000000 -0.000020 169.789246
82 10.182457 -168.977844 -13.084106 -0.002473 -0.000000 -0.000020 169.789246
83 10.182457 -168.977844 -13.084106 -0.002473 -0.000000 -0.000020 169.789246
[arm_lock_bottom_part1]
78 -48.820000 98.566208 -83.498993 179.999985 0.000004 9.388626 138.096970
79 -48.820000 98.566208 -83.498993 179.999985 0.000004 9.388626 138.096970
80 -48.820000 98.566208 -83.498993 179.999985 0.000004 9.388626 138.096970
81 -48.820000 98.566208 -83.498993 179.999985 0.000004 9.388626 138.096970
82 -48.820000 98.566208 -83.498993 179.999985 0.000004 9.388626 138.096970
83 -48.820000 98.566208 -83.498993 179.999985 0.000004 9.388626 138.096970
[arm_lock_bottom_part2]
78 -49.022766 58.782005 -78.526535 -179.999985 -0.000001 6.576765 109.658440
79 -49.022766 58.782005 -78.526535 -179.999985 -0.000001 6.576765 109.658440
80 -49.022766 58.782005 -78.526535 -179.999985 -0.000001 6.576765 109.658440
81 -49.022766 58.782005 -78.526535 -179.999985 -0.000001 6.576765 109.658440
82 -49.022766 58.782005 -78.526535 -179.999985 -0.000001 6.576765 109.658440
83 -49.022766 58.782005 -78.526535 -179.999985 -0.000001 6.576765 109.658440
[arm_lock_bottom_part3]
78 -51.266422 -16.798210 -66.920395 -179.999985 -0.000001 4.326176 85.957924
79 -51.266422 -16.798210 -66.920395 -179.999985 -0.000001 4.326176 85.957924
80 -51.266422 -16.798210 -66.920395 -179.999985 -0.000001 4.326176 85.957924
81 -51.266422 -16.798210 -66.920395 -179.999985 -0.000001 4.326176 85.957924
82 -51.266422 -16.798210 -66.920395 -179.999985 -0.000001 4.326176 85.957924
83 -51.266422 -16.798210 -66.920395 -179.999985 -0.000001 4.326176 85.957924
[arm_lock_bottom_part4]
78 -40.078102 -93.503113 -59.330063 -179.999985 -0.000000 1.322129 117.767326
79 -40.078102 -93.503113 -59.330063 -179.999985 -0.000000 1.322129 117.767326
80 -40.078102 -93.503113 -59.330063 -179.999985 -0.000000 1.322129 117.767326
81 -40.078102 -93.503113 -59.330063 -179.999985 -0.000000 1.322129 117.767326
82 -40.078102 -93.503113 -59.330063 -179.999985 -0.000000 1.322129 117.767326
83 -40.078102 -93.503113 -59.330063 -179.999985 -0.000000 1.322129 117.767326
[arm_lock_top_part1]
78 -47.532558 61.554489 78.379364 0.000000 -0.000000 -9.999999 110.415680
79 -47.532558 61.554489 78.379364 0.000000 -0.000000 -9.999999 110.415680
80 -47.532558 61.554489 78.379364 0.000000 -0.000000 -9.999999 110.415680
81 -47.532558 61.554489 78.379364 0.000000 -0.000000 -9.999999 110.415680
82 -47.532558 61.554489 78.379364 0.000000 -0.000000 -9.999999 110.415680
83 -47.532558 61.554489 78.379364 0.000000 -0.000000 -9.999999 110.415680
[arm_lock_top_part2]
78 -45.622673 13.709908 63.393555 0.000000 -0.000000 -7.722126 79.297745
79 -45.622673 13.709908 63.393555 0.000000 -0.000000 -7.722126 79.297745
80 -45.622673 13.709908 63.393555 0.000000 -0.000000 -7.722126 79.297745
81 -45.622673 13.709908 63.393555 0.000000 -0.000000 -7.722126 79.297745
82 -45.622673 13.709908 63.393555 0.000000 -0.000000 -7.722126 79.297745
83 -45.622673 13.709908 63.393555 0.000000 -0.000000 -7.722126 79.297745
[arm_lock_top_part3]
78 -43.788544 -73.747208 72.061615 0.000000 0.000000 -4.533067 112.022163
79 -43.788544 -73.747208 72.061615 0.000000 0.000000 -4.533067 112.022163
80 -43.788544 -73.747208 72.061615 0.000000 0.000000 -4.533067 112.022163
81 -43.788544 -73.747208 72.061615 0.000000 0.000000 -4.533067 112.022163
82 -43.788544 -73.747208 72.061615 0.000000 0.000000 -4.533067 112.022163
83 -43.788544 -73.747208 72.061615 0.000000 0.000000 -4.533067 112.022163
[front_lower_left_part1]
78 -46.798534 475.071045 -43.538895 -17.980034 0.000051 32.194077 479.351898
79 -46.798534 475.071045 -43.538895 -17.980034 0.000051 32.194077 479.351898
80 -46.798534 475.071045 -43.538895 -17.980034 0.000051 32.194077 479.351898
81 -46.798534 475.071045 -43.538895 -17.980036 0.000052 32.194084 479.351898
82 -46.798534 475.071045 -43.538895 -17.980034 0.000051 32.194073 479.351898
83 -46.798534 475.071045 -43.538895 -17.980034 0.000051 32.194077 479.351898
[front_lower_right_part1]
78 26.433468 475.070984 -43.538742 -17.167982 -0.000012 -27.317896 477.793671
79 26.433468 475.070984 -43.538742 -17.167982 -0.000012 -27.317894 477.793671
80 26.433468 475.070984 -43.538742 -17.167982 -0.000012 -27.317894 477.793671
81 26.433468 475.070984 -43.538742 -17.167982 -0.000012 -27.317894 477.793671
82 26.433468 475.070984 -43.538742 -17.167982 -0.000012 -27.317894 477.793671
83 26.433468 475.070984 -43.538742 -17.167982 -0.000012 -27.317894 477.793671
[front_top_left_part]
78 -47.897224 494.788910 7.030945 -0.000000 0.000003 -0.000001 497.151520
79 -47.897224 494.788910 7.030945 -0.000000 0.000003 -0.000001 497.151520
80 -47.897224 494.788910 7.030945 -0.000000 0.000003 -0.000001 497.151520
81 -47.897224 494.788910 7.030945 -0.000000 0.000003 -0.000001 497.151520
82 -47.897224 494.788910 7.030945 -0.000000 0.000003 -0.000001 497.151520
83 -47.897224 494.788910 7.030945 -0.000000 0.000003 -0.000001 497.151520
[front_top_right_part1]
78 27.532139 494.788910 7.031097 0.000000 -0.000000 -0.000000 495.604218
79 27.532139 494.788910 7.031097 0.000000 -0.000000 -0.000000 495.604218
80 27.532139 494.788910 7.031097 0.000000 -0.000000 -0.000000 495.604218
81 27.532139 494.788910 7.031097 0.000000 -0.000000 -0.000000 495.604218
82 27.532139 494.788910 7.031097 0.000000 -0.000000 -0.000000 495.604218
83 27.532139 494.788910 7.031097 0.000000 -0.000000 -0.000000 495.604218
[scope_part1]
78 -10.754299 87.338936 156.453094 -5.081438 -15.146153 1.330979 179.502960
79 -10.754299 87.338936 156.453094 -5.083141 -15.216574 1.337407 179.502960
80 -10.754299 87.338936 156.453094 -5.084773 -15.283349 1.343662 179.502960
81 -10.754299 87.338936 156.453094 -5.086262 -15.345925 1.349396 179.502960
82 -10.754299 87.338936 156.453094 -5.087715 -15.404153 1.354770 179.502960
83 -10.754299 87.338936 156.453094 -5.089039 -15.457647 1.359751 179.502960
[scope_part2]
78 -10.754299 82.597351 156.859894 -5.678881 30.232706 -2.866372 177.603500
79 -10.754299 82.597351 156.859894 -5.683744 30.316116 -2.876005 177.603500
80 -10.754299 82.597351 156.859894 -5.688271 30.393167 -2.884954 177.603500
81 -10.754299 82.597351 156.859894 -5.692457 30.465540 -2.893237 177.603500
82 -10.754299 82.597351 156.859894 -5.696394 30.532804 -2.901008 177.603500
83 -10.754299 82.597351 156.859894 -5.700062 30.594568 -2.908244 177.603500
[front_lower_left_part2]
78 -55.193634 141.618408 32.268219 0.000000 -0.000000 14.919997 155.381317
79 -55.193634 141.618408 32.268219 0.000000 -0.000000 14.981718 155.381317
80 -55.193634 141.618408 32.268219 0.000000 -0.000000 15.036904 155.381317
81 -55.193634 141.618408 32.268219 0.000000 -0.000000 15.092089 155.381317
82 -55.193634 141.618408 32.268219 0.000000 -0.000000 15.141661 155.381317
83 -55.193634 141.618408 32.268219 0.000000 -0.000000 15.187037 155.381317
[front_lower_left_part3]
78 -10.943909 108.509483 -11.124877 35.733448 -8.481215 -24.633984 109.625908
79 -10.943679 108.509445 -11.124877 35.722546 -8.533624 -24.560379 109.625847
80 -10.943831 108.509483 -11.124877 35.712055 -8.583776 -24.489719 109.625893
81 -10.943755 108.509483 -11.125030 35.701958 -8.631429 -24.422762 109.625908
82 -10.943831 108.509445 -11.124877 35.692520 -8.676028 -24.359854 109.625862
83 -10.943755 108.509445 -11.124877 35.683716 -8.717461 -24.301601 109.625854
[front_lower_right_part2]
78 55.193668 141.618195 32.268372 0.000000 0.000000 -18.737103 155.381149
79 55.193668 141.618195 32.268372 0.000000 0.000000 -18.777355 155.381149
80 55.193668 141.618195 32.268372 0.000000 0.000000 -18.815268 155.381149
81 55.193668 141.618195 32.268372 0.000000 0.000000 -18.850674 155.381149
82 55.193668 141.618195 32.268372 0.000000 0.000000 -18.883728 155.381149
83 55.193668 141.618195 32.268372 0.000000 0.000000 -18.913809 155.381149
[front_lower_right_part3]
78 10.943909 108.509483 -11.124725 35.274780 10.444208 21.845091 109.625893
79 10.943890 108.509521 -11.124725 35.264904 10.481939 21.790785 109.625931
80 10.943831 108.509712 -11.124877 35.255646 10.517352 21.739843 109.626122
81 10.943793 108.509590 -11.124725 35.246841 10.550849 21.691633 109.625992
82 10.943909 108.509521 -11.124725 35.238522 10.582311 21.646288 109.625931
83 10.943831 108.509590 -11.124725 35.230759 10.611461 21.604370 109.625992
[front_top_left_part2]
78 -87.627945 137.391434 57.315979 9.857933 0.416321 19.890644 172.743118
79 -87.726311 137.391190 57.321316 9.858375 0.408848 19.933779 172.794617
80 -87.819023 137.390976 57.326508 9.858749 0.401757 19.974440 172.843246
81 -87.905754 137.390823 57.331238 9.859088 0.395211 20.012457 172.888779
82 -87.986015 137.390671 57.335659 9.859452 0.389059 20.047697 172.930954
83 -88.059486 137.390442 57.339626 9.859768 0.383480 20.079979 172.969467
[front_top_left_part3]
78 -28.216400 149.656906 49.959641 -26.063951 -1.772802 -62.155869 160.278885
79 -28.216438 149.656982 49.959869 -26.065542 -1.747696 -62.104507 160.279037
80 -28.216400 149.656830 49.959641 -26.067097 -1.722588 -62.053131 160.278809
81 -28.216362 149.656906 49.959641 -26.068499 -1.699420 -62.005791 160.278870
82 -28.216400 149.656982 49.959641 -26.069813 -1.677792 -61.961613 160.278961
83 -28.216438 149.656830 49.959564 -26.070971 -1.658755 -61.922646 160.278793
[front_top_right_part2]
78 81.554077 137.571487 52.696533 8.059771 1.170542 -23.001995 168.386185
79 81.642235 137.571701 52.691650 8.058887 1.177416 -23.050228 168.427551
80 81.725510 137.571869 52.687073 8.058084 1.183865 -23.095654 168.466629
81 81.803368 137.572021 52.682796 8.057252 1.189951 -23.138258 168.503204
82 81.875504 137.572174 52.678829 8.056508 1.195506 -23.177734 168.537125
83 81.941612 137.572311 52.675167 8.055847 1.200602 -23.213926 168.568222
[front_top_right_part3]
78 28.216492 149.656982 49.959717 -25.939709 3.176191 65.035103 160.278992
79 28.216490 149.657059 49.959641 -25.942266 3.153973 64.989334 160.279037
80 28.216511 149.657059 49.959717 -25.944597 3.132778 64.945618 160.279068
81 28.216469 149.657135 49.959564 -25.946863 3.112749 64.904480 160.279083
82 28.216467 149.657135 49.959488 -25.948944 3.094071 64.865868 160.279053
83 28.216452 149.657135 49.959564 -25.950901 3.076746 64.830376 160.279083
